<svg xmlns:xlink="http://www.w3.org/1999/xlink" xmlns="http://www.w3.org/2000/svg" height="72.38829673568388" width="350" style="width: 350px; height: 72.3883px; position: absolute; top: 50%; left: 50%; transform: translate(-50%, -50%) scale(1); z-index: 0; cursor: pointer;"><defs id="SvgjsDefs1001"></defs><g id="SvgjsG1007" featurekey="xgcenu-0" transform="matrix(4.451924183600726,0,0,4.451924183600726,-4.451924714311445,-30.896358334615933)" fill="#696969"><path d="M2.14 23.2 c-0.32 0 -0.59 -0.11332 -0.81 -0.33998 s-0.33 -0.5 -0.33 -0.82 l0 -13.96 c0 -0.32 0.11 -0.59 0.33 -0.81 s0.49 -0.33 0.81 -0.33 l1.92 0 c0.30666 0 0.57332 0.11 0.79998 0.33 s0.34 0.49 0.34 0.81 s-0.11334 0.59 -0.34 0.81 s-0.49332 0.33 -0.79998 0.33 l-0.76 0 l0 11.68 l0.76 0 c0.30666 0 0.57332 0.11334 0.79998 0.34 s0.34 0.49332 0.34 0.79998 c0 0.32 -0.11334 0.59334 -0.34 0.82 s-0.49332 0.34 -0.79998 0.34 l-1.92 0 z M9.24 16.3 c-0.01334 0.06666 -0.020058 0.1233 -0.020058 0.16996 l0 0.15 c0.58666 -0.98666 1.2233 -1.81 1.91 -2.47 s1.4367 -1.0233 2.25 -1.09 c0.02666 0 0.04666 0.0033398 0.06 0.01 s0.03334 0.01 0.06 0.01 c0.13334 0 0.27668 0.01666 0.43002 0.05 s0.3 0.07334 0.44 0.12 s0.26666 0.10332 0.38 0.16998 s0.19668 0.13332 0.25002 0.19998 c0.09334 0.14666 0.16 0.31666 0.2 0.51 s0.06 0.39334 0.06 0.6 s-0.02334 0.4 -0.07 0.58 s-0.11 0.31666 -0.19 0.41 c-0.10666 0.13334 -0.21666 0.23334 -0.33 0.3 s-0.22 0.12 -0.32 0.16 s-0.18 0.08666 -0.24 0.14 s-0.09 0.13334 -0.09 0.24 c0.01334 0.16 0.1 0.28666 0.26 0.38 s0.35666 0.14668 0.59 0.16002 s0.48 -0.01666 0.74 -0.09 s0.49 -0.20334 0.69 -0.39 c0.17334 -0.14666 0.32334 -0.31332 0.45 -0.49998 s0.24 -0.37 0.34 -0.55 s0.19666 -0.34334 0.29 -0.49 s0.18668 -0.25332 0.28002 -0.31998 c0.09334 -0.05334 0.22334 -0.07 0.39 -0.05 s0.33 0.07334 0.49 0.16 s0.3 0.20332 0.42 0.34998 s0.19334 0.31332 0.22 0.49998 c0.01334 0.18666 -0.07332 0.47 -0.25998 0.85 s-0.45 0.77666 -0.79 1.19 s-0.74 0.81 -1.2 1.19 s-0.95666 0.67 -1.49 0.87 c-0.65334 0.24 -1.2567 0.34334 -1.81 0.31 s-1.03 -0.17 -1.43 -0.41 s-0.71 -0.55666 -0.93 -0.95 s-0.32334 -0.82334 -0.31 -1.29 c-0.30666 0.29334 -0.58332 0.59 -0.82998 0.89 s-0.45666 0.57666 -0.63 0.83 c-0.09334 0.14666 -0.25668 0.28666 -0.49002 0.42 s-0.48668 0.23334 -0.76002 0.3 s-0.54 0.08 -0.8 0.04 s-0.45 -0.15334 -0.57 -0.34 c-0.13334 -0.2 -0.24334 -0.48334 -0.33 -0.85 s-0.15666 -0.76 -0.21 -1.18 s-0.09 -0.83 -0.11 -1.23 s-0.03 -0.72 -0.03 -0.96 c0.02666 -0.58666 0.07666 -1.1633 0.15 -1.73 s0.17334 -1.1 0.3 -1.6 s0.27666 -0.95666 0.45 -1.37 s0.37334 -0.76 0.6 -1.04 c0.09334 -0.12 0.28334 -0.18334 0.57 -0.19 s0.59 0.02668 0.91 0.10002 s0.62 0.17668 0.9 0.31002 s0.46 0.28 0.54 0.44 c0.09334 0.2 0.08 0.52 -0.04 0.96 s-0.27334 0.93666 -0.46 1.49 s-0.37332 1.14 -0.55998 1.76 s-0.29332 1.21 -0.31998 1.77 z M21.74 12.74 c0.17334 -0.02666 0.34668 0.0033594 0.52002 0.09002 s0.34 0.19332 0.5 0.31998 s0.31334 0.25 0.46 0.37 s0.28 0.19334 0.4 0.22 c0.48 0.10666 0.94666 0.15 1.4 0.13 s0.86334 -0.05666 1.23 -0.11 s0.67666 -0.1 0.93 -0.14 s0.42 -0.03334 0.5 0.02 c0.08 0.06666 0.11334 0.18 0.1 0.34 s-0.05334 0.33666 -0.12 0.53 s-0.15666 0.38 -0.27 0.56 s-0.23668 0.31666 -0.37002 0.41 c-0.09334 0.06666 -0.23668 0.12666 -0.43002 0.18 s-0.41334 0.1 -0.66 0.14 s-0.51 0.06666 -0.79 0.08 s-0.55334 0.02 -0.82 0.02 c0.08 0.30666 0.11 0.66666 0.09 1.08 s-0.12 0.81668 -0.3 1.21 s-0.46 0.75 -0.84 1.07 s-0.89 0.54666 -1.53 0.68 c-0.33334 0.06666 -0.73334 0.07666 -1.2 0.03 s-0.92666 -0.19 -1.38 -0.43 s-0.85668 -0.59334 -1.21 -1.06 s-0.57668 -1.0933 -0.67002 -1.88 c-0.05334 -0.42666 -0.08 -0.93666 -0.08 -1.53 s0.03 -1.2 0.09 -1.82 s0.14666 -1.2167 0.26 -1.79 s0.25 -1.04 0.41 -1.4 c0.12 -0.26666 0.33334 -0.43 0.64 -0.49 s0.63 -0.05666 0.97 0.01 s0.65 0.18332 0.93 0.34998 s0.45334 0.34332 0.52 0.52998 s0.04666 0.49 -0.06 0.91 s-0.21666 0.89334 -0.33 1.42 s-0.18668 1.08 -0.22002 1.66 s0.05 1.1167 0.25 1.61 c0.14666 0.36 0.34666 0.58 0.6 0.66 s0.46668 0.06666 0.64002 -0.04 c0.18666 -0.10666 0.27332 -0.31666 0.25998 -0.63 s-0.13334 -0.62334 -0.36 -0.93 c-0.26666 -0.2 -0.45332 -0.41334 -0.55998 -0.64 c-0.10666 -0.18666 -0.17332 -0.38 -0.19998 -0.58 s-0.01332 -0.38 0.04002 -0.54 s0.13668 -0.29666 0.25002 -0.41 s0.25 -0.18334 0.41 -0.21 z M35.019999999999996 14.76 c0.09334 -0.05334 0.2233 -0.07338 0.38996 -0.060038 s0.33332 0.06334 0.49998 0.15 s0.31 0.20332 0.43 0.34998 s0.18 0.32 0.18 0.52 c0 0.33334 -0.15666 0.74668 -0.47 1.24 s-0.74 0.97 -1.28 1.43 s-1.1833 0.85334 -1.93 1.18 s-1.5467 0.49 -2.4 0.49 c-0.56 0 -1.1067 -0.08 -1.64 -0.24 s-1.0033 -0.39334 -1.41 -0.7 s-0.73332 -0.68332 -0.97998 -1.13 s-0.37 -0.96332 -0.37 -1.55 c0 -0.56 0.1 -1.0567 0.3 -1.49 s0.46334 -0.8 0.79 -1.1 s0.69666 -0.53666 1.11 -0.71 s0.84 -0.28 1.28 -0.32 c0.41334 -0.04 0.81668 -0.02 1.21 0.06 s0.75 0.20334 1.07 0.37 s0.59334 0.37666 0.82 0.63 s0.37332 0.54 0.43998 0.86 c0.09334 0.44 0.05 0.84666 -0.13 1.22 s-0.45334 0.66668 -0.82 0.88002 s-0.80332 0.32 -1.31 0.32 s-1.0333 -0.16 -1.58 -0.48 c0.17334 0.29334 0.43334 0.52 0.78 0.68 s0.73 0.24 1.15 0.24 s0.85334 -0.08666 1.3 -0.26 s0.86332 -0.44668 1.25 -0.82002 c0.16 -0.16 0.3 -0.32666 0.42 -0.5 s0.23 -0.34334 0.33 -0.51 s0.19666 -0.31666 0.29 -0.45 s0.18668 -0.23334 0.28002 -0.3 z M30.04 14.780000000000001 c-0.12 -0.13334 -0.25664 -0.19332 -0.40998 -0.17998 s-0.28 0.07 -0.38 0.17 s-0.15334 0.22334 -0.16 0.37 s0.06334 0.28666 0.21 0.42 c0.14666 0.12 0.29 0.17334 0.43 0.16 s0.25334 -0.06668 0.34 -0.16002 s0.13332 -0.21334 0.13998 -0.36 s-0.05 -0.28666 -0.17 -0.42 z M38.6 23.2 l-1.92 -0.000019531 c-0.30666 0 -0.57332 -0.11334 -0.79998 -0.34 s-0.34 -0.5 -0.34 -0.82 c0 -0.30666 0.11334 -0.57332 0.34 -0.79998 s0.49332 -0.34 0.79998 -0.34 l0.76 0 l0 -11.68 l-0.76 0 c-0.30666 0 -0.57332 -0.11 -0.79998 -0.33 s-0.34 -0.49 -0.34 -0.81 s0.11334 -0.59 0.34 -0.81 s0.49332 -0.33 0.79998 -0.33 l1.92 0 c0.32 0 0.59 0.11 0.81 0.33 s0.33 0.49 0.33 0.81 l0 13.96 c0 0.32 -0.11 0.59334 -0.33 0.82 s-0.49 0.34 -0.81 0.34 z M44 12.82 c0.94666 -0.04 1.68 0.24002 2.2 0.84002 c0.14666 -0.24 0.29332 -0.40666 0.43998 -0.5 c0.12 -0.05334 0.27666 -0.08 0.47 -0.08 s0.39 0.02334 0.59 0.07 s0.38 0.11 0.54 0.19 s0.26666 0.17334 0.32 0.28 s0.05668 0.24666 0.01002 0.42 s-0.09666 0.37 -0.15 0.59 s-0.09668 0.45666 -0.13002 0.71 s-0.01 0.50668 0.07 0.76002 c0.05334 0.21334 0.15 0.38334 0.29 0.51 s0.29666 0.21332 0.47 0.25998 s0.35668 0.05 0.55002 0.01 s0.37668 -0.12666 0.55002 -0.26 s0.31334 -0.29668 0.42 -0.49002 s0.19332 -0.38 0.25998 -0.56 s0.13332 -0.34334 0.19998 -0.49 s0.14666 -0.25332 0.24 -0.31998 c0.09334 -0.05334 0.22 -0.07 0.38 -0.05 s0.32 0.07334 0.48 0.16 s0.3 0.20332 0.42 0.34998 s0.19334 0.31332 0.22 0.49998 c0.01334 0.18666 -0.05332 0.46666 -0.19998 0.84 s-0.36666 0.76668 -0.66 1.18 s-0.65334 0.81 -1.08 1.19 s-0.9 0.67666 -1.42 0.89 c-0.76 0.30666 -1.4467 0.34332 -2.06 0.10998 s-1.0867 -0.62334 -1.42 -1.17 c-0.30666 0.37334 -0.65332 0.66668 -1.04 0.88002 s-0.78 0.33334 -1.18 0.36 c-0.44 0.04 -0.86 -0.0066602 -1.26 -0.14 s-0.75 -0.34 -1.05 -0.62 s-0.53666 -0.63334 -0.71 -1.06 s-0.25334 -0.92 -0.24 -1.48 c0 -0.56 0.1 -1.0733 0.3 -1.54 s0.46334 -0.87 0.79 -1.21 s0.69666 -0.60666 1.11 -0.8 s0.84 -0.30334 1.28 -0.33 z M45.480000000000004 16.1 c0.02666 -0.24 0.01666 -0.4433 -0.03 -0.60996 s-0.11666 -0.30332 -0.21 -0.40998 s-0.19668 -0.18666 -0.31002 -0.24 s-0.23 -0.08668 -0.35 -0.10002 c-0.17334 -0.01334 -0.33 0.01332 -0.47 0.07998 s-0.25666 0.16332 -0.35 0.28998 s-0.16668 0.27 -0.22002 0.43 s-0.07334 0.32 -0.06 0.48 c0.02666 0.32 0.12666 0.6 0.3 0.84 s0.40668 0.34666 0.70002 0.32 s0.52668 -0.13666 0.70002 -0.33 s0.27334 -0.44334 0.3 -0.75 z M57.28 13.16 c0.10666 -0.05334 0.25672 -0.08 0.45006 -0.08 s0.39 0.02334 0.59 0.07 s0.38334 0.11 0.55 0.19 s0.27666 0.17334 0.33 0.28 c0.04 0.10666 0.06334 0.24666 0.07 0.42 s0.01332 0.37 0.01998 0.59 s0.02 0.45666 0.04 0.71 s0.07 0.50668 0.15 0.76002 c0.05334 0.21334 0.15 0.38334 0.29 0.51 s0.29666 0.21332 0.47 0.25998 s0.35668 0.05 0.55002 0.01 s0.37668 -0.12666 0.55002 -0.26 s0.31334 -0.29668 0.42 -0.49002 s0.19332 -0.38 0.25998 -0.56 s0.13332 -0.34334 0.19998 -0.49 s0.14666 -0.25332 0.24 -0.31998 c0.09334 -0.05334 0.22 -0.07 0.38 -0.05 s0.32 0.07334 0.48 0.16 s0.30334 0.20332 0.43 0.34998 s0.20332 0.31332 0.22998 0.49998 c0.01334 0.18666 -0.05666 0.46666 -0.21 0.84 s-0.37668 0.76668 -0.67002 1.18 s-0.65334 0.81 -1.08 1.19 s-0.9 0.67666 -1.42 0.89 c-0.41334 0.16 -0.81334 0.24 -1.2 0.24 s-0.74666 -0.06334 -1.08 -0.19 s-0.63334 -0.31 -0.9 -0.55 s-0.48666 -0.52 -0.66 -0.84 c-0.34666 0.44 -0.73666 0.79666 -1.17 1.07 s-0.90334 0.42334 -1.41 0.45 c-0.44 0.02666 -0.85666 -0.03 -1.25 -0.17 s-0.73334 -0.35334 -1.02 -0.64 s-0.51666 -0.65 -0.69 -1.09 s-0.26668 -0.95334 -0.28002 -1.54 c-0.01334 -0.30666 -0.0033398 -0.63 0.03 -0.97 s0.08334 -0.67 0.15 -0.99 s0.14666 -0.61334 0.24 -0.88 s0.2 -0.48666 0.32 -0.66 c0.09334 -0.12 0.26668 -0.2 0.52002 -0.24 s0.52 -0.05 0.8 -0.03 s0.54 0.07334 0.78 0.16 s0.39334 0.19666 0.46 0.33 c0.05334 0.10666 0.06 0.26666 0.02 0.48 s-0.09 0.45334 -0.15 0.72 s-0.11666 0.54332 -0.17 0.82998 s-0.06668 0.55666 -0.04002 0.81 c0.04 0.32 0.14666 0.57334 0.32 0.76 s0.39334 0.28666 0.66 0.3 c0.34666 0.01334 0.65 -0.14332 0.91 -0.46998 s0.48334 -0.89 0.67 -1.69 c0.09334 -0.50666 0.21668 -0.92332 0.37002 -1.25 s0.30334 -0.53 0.45 -0.61 z M61.620000000000005 10.84 c0.14666 0.06666 0.32324 0.11668 0.5299 0.15002 s0.43 0.05668 0.67 0.07002 c0.09334 -0.26666 0.18668 -0.48666 0.28002 -0.66 s0.18668 -0.34 0.28002 -0.5 c0.09334 -0.17334 0.28334 -0.28668 0.57 -0.34002 s0.58332 -0.07 0.88998 -0.05 s0.58666 0.07334 0.84 0.16 s0.40668 0.18332 0.46002 0.28998 c0.04 0.09334 0.05334 0.20668 0.04 0.34002 s-0.04 0.29334 -0.08 0.48 c0.42666 -0.06666 0.81666 -0.13666 1.17 -0.21 s0.63 -0.13 0.83 -0.17 c0.28 -0.05334 0.47666 0.01666 0.59 0.21 s0.16 0.43334 0.14 0.72 s-0.09666 0.58 -0.23 0.88 s-0.3 0.53 -0.5 0.69 c-0.21334 0.16 -0.57334 0.27666 -1.08 0.35 s-1.0733 0.11668 -1.7 0.13002 c-0.13334 0.46666 -0.22334 0.92332 -0.27 1.37 s-0.01666 0.86332 0.09 1.25 c0.06666 0.21334 0.17666 0.39 0.33 0.53 s0.32668 0.24 0.52002 0.3 s0.39334 0.07334 0.6 0.04 s0.39666 -0.11668 0.57 -0.25002 s0.31334 -0.29668 0.42 -0.49002 s0.19332 -0.38 0.25998 -0.56 s0.13332 -0.34334 0.19998 -0.49 s0.14666 -0.25332 0.24 -0.31998 c0.09334 -0.05334 0.22334 -0.07 0.39 -0.05 s0.33 0.07334 0.49 0.16 s0.3 0.20332 0.42 0.34998 s0.19334 0.31332 0.22 0.49998 c0.01334 0.18666 -0.05332 0.46666 -0.19998 0.84 s-0.37 0.76668 -0.67 1.18 s-0.66334 0.81 -1.09 1.19 s-0.9 0.67666 -1.42 0.89 c-0.54666 0.21334 -1.0733 0.28668 -1.58 0.22002 s-0.96 -0.23332 -1.36 -0.49998 s-0.72666 -0.61666 -0.98 -1.05 s-0.4 -0.91 -0.44 -1.43 c-0.02666 -0.46666 -0.01666 -1.02 0.03 -1.66 s0.13 -1.3733 0.25 -2.2 c-0.32 -0.05334 -0.59666 -0.11668 -0.83 -0.19002 s-0.39 -0.15 -0.47 -0.23 c-0.14666 -0.16 -0.23332 -0.36334 -0.25998 -0.61 s-0.01 -0.48332 0.05 -0.70998 s0.16 -0.40666 0.3 -0.54 s0.30334 -0.16 0.49 -0.08 z M75.72 20.44 c0.04 0.44 -0.083418 0.79672 -0.37008 1.0701 s-0.63332 0.47 -1.04 0.59 s-0.81332 0.16334 -1.22 0.13 s-0.71 -0.13 -0.91 -0.29 c-0.09334 -0.06666 -0.16668 -0.19332 -0.22002 -0.37998 s-0.07334 -0.39666 -0.06 -0.63 s0.06668 -0.47668 0.16002 -0.73002 s0.24 -0.49334 0.44 -0.72 c-0.46666 0.30666 -0.96666 0.48 -1.5 0.52 c-0.44 0.02666 -0.85334 -0.03 -1.24 -0.17 s-0.72332 -0.35334 -1.01 -0.64 s-0.51666 -0.65 -0.69 -1.09 s-0.26668 -0.95334 -0.28002 -1.54 c-0.01334 -0.30666 0.01332 -0.62332 0.07998 -0.94998 s0.15666 -0.64 0.27 -0.94 s0.23668 -0.58 0.37002 -0.84 s0.26 -0.47 0.38 -0.63 c0.09334 -0.12 0.26668 -0.20334 0.52002 -0.25 s0.52 -0.06 0.8 -0.04 s0.54 0.07 0.78 0.15 s0.39334 0.18666 0.46 0.32 c0.04 0.10666 0.03 0.26332 -0.03 0.46998 s-0.13334 0.43332 -0.22 0.67998 s-0.17 0.51 -0.25 0.79 s-0.10666 0.54666 -0.08 0.8 c0.02666 0.32 0.11 0.57334 0.25 0.76 s0.34334 0.28666 0.61 0.3 c0.28 0.01334 0.53334 -0.09 0.76 -0.31 s0.42666 -0.59666 0.6 -1.13 c0.14666 -0.74666 0.31 -1.3967 0.49 -1.95 s0.35666 -0.88334 0.53 -0.99 c0.10666 -0.05334 0.27332 -0.08668 0.49998 -0.10002 s0.45666 -0.0033398 0.69 0.03 s0.44668 0.09334 0.64002 0.18 s0.31668 0.19666 0.37002 0.33 c0.04 0.10666 0.05 0.27666 0.03 0.51 s-0.05 0.50334 -0.09 0.81 s-0.08666 0.62666 -0.14 0.96 s-0.1 0.64 -0.14 0.92 c0.33334 -0.17334 0.66334 -0.31668 0.99 -0.43002 s0.62332 -0.2 0.88998 -0.26 s0.5 -0.09666 0.7 -0.11 s0.34666 0 0.44 0.04 c0.17334 0.06666 0.31 0.17666 0.41 0.33 s0.16666 0.32 0.2 0.5 s0.03668 0.35 0.01002 0.51 s-0.08 0.28 -0.16 0.36 s-0.26 0.16 -0.54 0.24 s-0.60666 0.19 -0.98 0.33 s-0.76 0.31 -1.16 0.51 s-0.76666 0.46 -1.1 0.78 c-0.01334 0.34666 0.0066602 0.74666 0.06 1.2 z" fill="#696969"></path></g></svg>